<svg width="169" height="11" viewBox="0 0 169 11" fill="none" xmlns="http://www.w3.org/2000/svg">
<path id="path" d="M-5 5.2453C1.87266 2.25157 7.59988 2.25157 12.1816 5.2453C16.7634 8.23904 22.4906 8.23904 29.3633 5.2453C36.236 2.25157 41.9632 2.25157 46.5449 5.2453C51.1267 8.23904 56.8539 8.23904 63.7266 5.2453C70.5993 2.25157 76.3265 2.25157 80.9082 5.2453C85.49 8.23904 91.2172 8.23904 98.0899 5.2453C104.963 2.25157 110.69 2.25157 115.272 5.2453C119.853 8.23904 125.581 8.23904 132.453 5.2453C139.326 2.25157 145.053 2.25157 149.635 5.2453C154.217 8.23904 159.944 8.23904 166.816 5.2453" stroke="#FF4575" stroke-width="5.99997"/>
</svg>
