<svg width="48" height="48" viewBox="0 0 48 48" fill="none" xmlns="http://www.w3.org/2000/svg">
<g id="Live Demo">
<path id="globe" d="M24.495 39.9899C32.97 39.9899 39.99 32.985 39.99 24.495C39.99 16.0199 32.97 8.99995 24.48 8.99995C16.005 8.99995 9 16.0199 9 24.495C9 32.985 16.02 39.9899 24.495 39.9899ZM15.465 15.0599C16.965 13.6349 18.78 12.5399 20.805 11.9399C19.74 13.0049 18.84 14.505 18.165 16.3349C17.115 16.0049 16.215 15.57 15.465 15.0599ZM28.2001 11.9549C30.21 12.5549 32.025 13.6349 33.51 15.0599C32.775 15.5849 31.8751 16.0049 30.825 16.3499C30.15 14.505 29.25 13.0049 28.2001 11.9549ZM25.545 12.4349C26.79 13.0349 27.93 14.6549 28.74 16.8599C27.75 17.0399 26.685 17.145 25.545 17.1899V12.4349ZM20.25 16.8599C21.075 14.6549 22.2001 13.0349 23.445 12.4349V17.1899C22.305 17.145 21.24 17.0399 20.25 16.8599ZM11.445 23.445C11.655 20.8949 12.615 18.5399 14.085 16.6049C15 17.2799 16.185 17.865 17.565 18.2999C17.175 19.8599 16.92 21.5999 16.845 23.445H11.445ZM32.145 23.445C32.07 21.5999 31.815 19.8599 31.425 18.2999C32.805 17.865 33.99 17.2949 34.89 16.6049C36.375 18.5399 37.335 20.8949 37.545 23.445H32.145ZM18.99 23.445C19.065 21.8099 19.29 20.25 19.635 18.8399C20.835 19.0799 22.1099 19.2299 23.445 19.29V23.445H18.99ZM25.545 23.445V19.29C26.88 19.2299 28.155 19.0799 29.355 18.8399C29.7 20.25 29.925 21.8099 30 23.445H25.545ZM11.445 25.545H16.845C16.92 27.4199 17.175 29.1749 17.565 30.75C16.2 31.1849 15.03 31.7549 14.13 32.43C12.63 30.4799 11.655 28.11 11.445 25.545ZM18.99 25.545H23.445V29.775C22.125 29.8349 20.835 29.9849 19.65 30.2099C19.29 28.7849 19.05 27.1949 18.99 25.545ZM25.545 29.775V25.545H30C29.94 27.1949 29.7 28.7849 29.34 30.2099C28.155 29.9849 26.88 29.8349 25.545 29.775ZM31.425 30.75C31.83 29.1749 32.07 27.4199 32.145 25.545H37.545C37.335 28.11 36.3601 30.4799 34.86 32.43C33.9601 31.7549 32.79 31.1849 31.425 30.75ZM25.545 31.875C26.6699 31.9199 27.735 32.025 28.71 32.2049C27.9 34.3649 26.775 35.9699 25.545 36.5549V31.875ZM20.28 32.2049C21.255 32.025 22.32 31.9199 23.445 31.875V36.5549C22.215 35.9699 21.09 34.3649 20.28 32.2049ZM15.51 33.9749C16.245 33.465 17.145 33.045 18.18 32.7149C18.855 34.515 19.74 35.9849 20.775 37.0349C18.795 36.435 16.995 35.37 15.51 33.9749ZM30.81 32.7149C31.845 33.045 32.745 33.465 33.4801 33.9749C31.995 35.37 30.1949 36.435 28.215 37.0349C29.25 35.9849 30.135 34.515 30.81 32.7149Z" fill="#333333"/>
</g>
</svg>
